<svg xmlns="http://www.w3.org/2000/svg" viewBox="0 0 32 32">
  <defs>
    <linearGradient id="bg" x1="0" y1="0" x2="1" y2="1">
      <stop offset="0%" stop-color="#1c1c1c"/>
      <stop offset="100%" stop-color="#2d2d2d"/>
    </linearGradient>
  </defs>
  <!-- Hexagon background with thick outline -->
  <polygon points="16,3 27.3,9.5 27.3,22.5 16,29 4.7,22.5 4.7,9.5"
           fill="url(#bg)" stroke="#ff6b6b" stroke-width="2.5" opacity="1"/>
  <!-- J letter path -->
  <path d="M7 10 h5 v0.5 h-2 v9 q0 2.5 -2.5 2.5 q-1.5 0 -2 -1 l1 -0.8 q0.3 0.6 1 0.6 q1.2 0 1.2 -1.5 v-9.3 h-1.7 z"
        fill="#ff6b6b"/>
  <!-- B letter path -->
  <path d="M15 10 h4.5 q2.5 0 2.5 2.5 q0 1.5 -1.2 2 q1.6 0.5 1.6 2.5 q0 3 -3 3 h-4.4 z
           M17.2 12 v3 h2 q1.3 0 1.3 -1.5 q0 -1.5 -1.3 -1.5 z
           M17.2 17 v3 h2.2 q1.5 0 1.5 -1.5 q0 -1.5 -1.5 -1.5 z"
        fill="#ff6b6b"/>
</svg>
